<?xml version="1.0" encoding="UTF-8" standalone="no"?>
<!-- Generator: Adobe Illustrator 17.1.0, SVG Export Plug-In . SVG Version: 6.00 Build 0)  -->

<svg
   xmlns:dc="http://purl.org/dc/elements/1.1/"
   xmlns:cc="http://creativecommons.org/ns#"
   xmlns:rdf="http://www.w3.org/1999/02/22-rdf-syntax-ns#"
   xmlns:svg="http://www.w3.org/2000/svg"
   xmlns="http://www.w3.org/2000/svg"
   xmlns:sodipodi="http://sodipodi.sourceforge.net/DTD/sodipodi-0.dtd"
   xmlns:inkscape="http://www.inkscape.org/namespaces/inkscape"
   version="1.1"
   id="Layer_1"
   x="0px"
   y="0px"
   width="224px"
   height="64px"
   viewBox="0 0 224 64"
   enable-background="new 0 0 224 64"
   xml:space="preserve"
   inkscape:version="0.91 r13725"
   sodipodi:docname="socials-icons.svg"
   inkscape:export-filename="/Users/bharatkunwar/Sites/brtknr.github.io/assets/css/images/socials-icons.png"
   inkscape:export-xdpi="90"
   inkscape:export-ydpi="90"><metadata
     id="metadata35"><rdf:RDF><cc:Work
         rdf:about=""><dc:format>image/svg+xml</dc:format><dc:type
           rdf:resource="http://purl.org/dc/dcmitype/StillImage" /></cc:Work></rdf:RDF></metadata><defs
     id="defs33" /><sodipodi:namedview
     pagecolor="#ffffff"
     bordercolor="#666666"
     borderopacity="1"
     objecttolerance="10"
     gridtolerance="10"
     guidetolerance="10"
     inkscape:pageopacity="0"
     inkscape:pageshadow="2"
     inkscape:window-width="1242"
     inkscape:window-height="755"
     id="namedview31"
     showgrid="false"
     inkscape:zoom="16"
     inkscape:cx="122.8579"
     inkscape:cy="39.07405"
     inkscape:window-x="38"
     inkscape:window-y="1"
     inkscape:window-maximized="1"
     inkscape:current-layer="Layer_1" /><path
     fill="#383838"
     d="M24,11c-0.6,0.3-1.2,0.4-1.9,0.5c0.7-0.4,1.2-1,1.4-1.8c-0.6,0.4-1.3,0.6-2.1,0.8c-0.6-0.6-1.5-1-2.4-1  c-1.8,0-3.3,1.5-3.3,3.3c0,0.3,0,0.5,0.1,0.7c-2.7-0.1-5.1-1.4-6.8-3.4c-0.3,0.5-0.4,1-0.4,1.7c0,1.1,0.6,2.1,1.5,2.7  c-0.5,0-1-0.2-1.5-0.4l0,0c0,1.6,1.1,2.9,2.6,3.2c-0.4,0.3-1,0.3-1.5,0c0.4,1.3,1.6,2.3,3.1,2.3c-1.1,0.9-2.5,1.4-4.1,1.4  c-0.3,0-0.5,0-0.8,0c1.5,0.9,3.2,1.5,5,1.5c6,0,9.3-5,9.3-9.3c0-0.1,0-0.3,0-0.4C23,12.3,23.6,11.7,24,11z"
     id="path3" /><path
     fill="#383838"
     d="M78,16v8h3v-8h2l1-3h-3c0,0,0-0.5,0-1.3c0-0.3,0.2-0.7,0.7-0.7c1,0,2.9,0,2.3,0V8c0,0-1.6,0-3.3,0  C79,8,78,9.3,78,10.8s0,2.3,0,2.3h-2v3h2V16z"
     id="path5" /><path
     fill="#383838"
     d="M170,20c-1.1,0-2,0.9-2,2c0,1.1,0.9,2,2,2c1.1,0,2-0.9,2-2C172.1,21,171.1,20,170,20z M168,13.4v3.1  c4.2,0,7.5,3.6,7.5,7.5h3.1C178.6,18.2,173.8,13.4,168,13.4z M168,8v3.1c7.1,0,12.9,5.8,12.9,12.9h3.1C184,15.2,176.8,8,168,8z"
     id="path9" /><path
     fill="#383838"
     d="M50.8,17.1c-0.6,0-1.1,0.7-1.1,1.6c0,0.9,0.5,1.6,1.1,1.6c0.6,0,1.1-0.7,1.1-1.6  C51.9,17.8,51.4,17.1,50.8,17.1z M54.7,13.1c0.1-0.3,0.1-2.1-0.6-3.8c0,0-1.6,0.2-4,1.8c-0.5-0.1-1.3-0.2-2.2-0.2s-1.7,0.1-2.2,0.2  c-2.4-1.6-4-1.8-4-1.8c-0.7,1.7-0.7,3.5-0.6,3.8C40.5,13.9,40,15,40,16.4c0,6.2,5.2,6.3,6.5,6.3c0.3,0,0.9,0,1.5,0  c0.6,0,1.2,0,1.5,0c1.3,0,6.5-0.1,6.5-6.3C56,15,55.5,13.9,54.7,13.1z M48,22L48,22c-3.3,0-5.9-0.4-5.9-3.6c0-0.8,0.3-1.5,0.9-2.1  c1.1-1,2.9-0.5,4.9-0.5c0,0,0,0,0,0c0,0,0,0,0,0c2.1,0,3.9-0.5,4.9,0.5c0.6,0.6,0.9,1.3,0.9,2.1C53.9,21.6,51.3,22,48,22z   M45.2,17.1c-0.6,0-1.1,0.7-1.1,1.6c0,0.9,0.5,1.6,1.1,1.6c0.6,0,1.1-0.7,1.1-1.6C46.4,17.8,45.9,17.1,45.2,17.1z"
     id="path11" /><path
     fill="#383838"
     d="M143.1,11.8c-0.2-1.7-1.4-3-2.5-3s-2,1.3-1.8,2.9c0.2,1.7,1.4,3,2.5,3.1C142.4,14.8,143.2,13.4,143.1,11.8z   M141.2,18c-1.8,0-3.4,1.1-3.4,2.6s1.3,2.6,3,2.6c2.5,0,3.4-1.1,3.4-2.6c0-0.2,0-0.3-0.1-0.5c-0.2-0.8-0.9-1.2-1.8-1.9  C142,18.1,141.6,18,141.2,18z M143.2,8.8c1,0.4,1.5,1.6,1.5,2.9c0,1-0.6,1.9-1.3,2.6c-0.7,0.6-0.9,0.9-0.9,1.4  c0,0.5,0.8,1.2,1.2,1.5c1.2,1,1.6,1.8,1.6,3.2c0,1.8-1.6,3.6-4.5,3.6c-2.6,0-4.7-1.1-4.7-2.9c0-1.8,2-3.6,4.5-3.6h0.8  c-0.3-0.4-0.6-0.8-0.6-1.4c0-0.3,0.1-0.6,0.2-1c-0.2,0-0.3,0-0.4,0c-2.1,0-3.5-1.6-3.5-3.6c0-1.9,1.9-3.6,4-3.6h4.6l-1,0.8H143.2  L143.2,8.8z M151,12h-2v2h-1v-2h-2v-1h2V9h1v2h2V12z"
     id="path13" /><path
     fill="#383838"
     d="M206.9,18.6c-0.4,2.2-0.9,4.3-2.5,5.4c-0.5-3.3,0.7-5.8,1.2-8.5c-0.9-1.5,0.1-4.6,2-3.9  c2.4,0.9-2.1,5.7,0.9,6.3c3.1,0.6,4.4-5.4,2.5-7.4c-2.8-2.8-8.1-0.1-7.5,4c0.2,1,1.2,1.3,0.4,2.7c-1.8-0.4-2.3-1.8-2.2-3.7  c0.1-3.1,2.8-5.2,5.4-5.5c3.4-0.4,6.5,1.2,7,4.4c0.5,3.6-1.5,7.4-5.1,7.2C208.1,19.5,207.7,19,206.9,18.6z"
     id="path15" /><path
     fill="#FFFFFF"
     d="M24,43c-0.6,0.3-1.2,0.4-1.9,0.5c0.7-0.4,1.2-1,1.4-1.8c-0.6,0.4-1.3,0.6-2.1,0.8c-0.6-0.6-1.5-1-2.4-1  c-1.8,0-3.3,1.5-3.3,3.3c0,0.3,0,0.5,0.1,0.7c-2.7-0.1-5.1-1.4-6.8-3.4c-0.3,0.5-0.4,1-0.4,1.7c0,1.1,0.6,2.1,1.5,2.7  c-0.5,0-1-0.2-1.5-0.4l0,0c0,1.6,1.1,2.9,2.6,3.2c-0.4,0.3-1,0.3-1.5,0c0.4,1.3,1.6,2.3,3.1,2.3c-1.1,0.9-2.5,1.4-4.1,1.4  c-0.3,0-0.5,0-0.8,0c1.5,0.9,3.2,1.5,5,1.5c6,0,9.3-5,9.3-9.3c0-0.1,0-0.3,0-0.4C23,44.3,23.6,43.7,24,43z"
     id="path17" /><path
     fill="#FFFFFF"
     d="M78,48v8h3v-8h2l1-3h-3c0,0,0-0.5,0-1.3c0-0.3,0.2-0.7,0.7-0.7c1,0,2.9,0,2.3,0v-3c0,0-1.6,0-3.3,0  C79,40,78,41.3,78,42.8s0,2.3,0,2.3h-2v3L78,48L78,48z"
     id="path19" /><path
     fill="#FFFFFF"
     d="M170,52c-1.1,0-2,0.9-2,2c0,1.1,0.9,2,2,2c1.1,0,2-0.9,2-2C172.1,53,171.1,52,170,52z M168,45.4v3.1  c4.2,0,7.5,3.6,7.5,7.5h3.1C178.6,50.2,173.8,45.4,168,45.4z M168,40v3.1c7.1,0,12.9,5.8,12.9,12.9h3.1C184,47.2,176.8,40,168,40z"
     id="path23" /><path
     fill="#FFFFFF"
     d="M50.8,49.1c-0.6,0-1.1,0.7-1.1,1.6c0,0.9,0.5,1.6,1.1,1.6c0.6,0,1.1-0.7,1.1-1.6  C51.9,49.8,51.4,49.1,50.8,49.1z M54.7,45.1c0.1-0.3,0.1-2.1-0.6-3.8c0,0-1.6,0.2-4,1.8c-0.5-0.1-1.3-0.2-2.2-0.2s-1.7,0.1-2.2,0.2  c-2.4-1.6-4-1.8-4-1.8c-0.7,1.7-0.7,3.5-0.6,3.8C40.5,45.9,40,47,40,48.4c0,6.2,5.2,6.3,6.5,6.3c0.3,0,0.9,0,1.5,0  c0.6,0,1.2,0,1.5,0c1.3,0,6.5-0.1,6.5-6.3C56,47,55.5,45.9,54.7,45.1z M48,54L48,54c-3.3,0-5.9-0.4-5.9-3.6c0-0.8,0.3-1.5,0.9-2.1  c1.1-1,2.9-0.5,4.9-0.5c0,0,0,0,0,0c0,0,0,0,0,0c2.1,0,3.9-0.5,4.9,0.5c0.6,0.6,0.9,1.3,0.9,2.1C53.9,53.6,51.3,54,48,54z   M45.2,49.1c-0.6,0-1.1,0.7-1.1,1.6c0,0.9,0.5,1.6,1.1,1.6c0.6,0,1.1-0.7,1.1-1.6C46.4,49.8,45.9,49.1,45.2,49.1z"
     id="path25" /><path
     fill="#FFFFFF"
     d="M143.1,43.8c-0.2-1.7-1.4-3-2.5-3s-2,1.3-1.8,2.9c0.2,1.7,1.4,3,2.5,3.1C142.4,46.8,143.2,45.4,143.1,43.8z   M141.2,50c-1.8,0-3.4,1.1-3.4,2.6c0,1.4,1.3,2.6,3,2.6c2.5,0,3.4-1.1,3.4-2.6c0-0.2,0-0.3-0.1-0.5c-0.2-0.8-0.9-1.2-1.8-1.9  C142,50.1,141.6,50,141.2,50z M143.2,40.8c1,0.4,1.5,1.6,1.5,2.9c0,1-0.6,1.9-1.3,2.6c-0.7,0.6-0.9,0.9-0.9,1.4  c0,0.5,0.8,1.2,1.2,1.5c1.2,1,1.6,1.8,1.6,3.2c0,1.8-1.6,3.6-4.5,3.6c-2.6,0-4.7-1.1-4.7-2.9c0-1.8,2-3.6,4.5-3.6h0.8  c-0.3-0.4-0.6-0.8-0.6-1.4c0-0.3,0.1-0.6,0.2-1c-0.2,0-0.3,0-0.4,0c-2.1,0-3.5-1.6-3.5-3.6c0-1.9,1.9-3.6,4-3.6h4.6l-1,0.8H143.2  L143.2,40.8z M151,44h-2v2h-1v-2h-2v-1h2v-2h1v2h2V44z"
     id="path27" /><path
     d="M206.9,50.6c-0.4,2.2-0.9,4.3-2.5,5.4c-0.5-3.3,0.7-5.8,1.2-8.5c-0.9-1.5,0.1-4.6,2-3.9  c2.4,0.9-2.1,5.7,0.9,6.3c3.1,0.6,4.4-5.4,2.5-7.4c-2.8-2.8-8.1-0.1-7.5,4c0.2,1,1.2,1.3,0.4,2.7c-1.8-0.4-2.3-1.8-2.2-3.7  c0.1-3.1,2.8-5.2,5.4-5.5c3.4-0.4,6.5,1.2,7,4.4c0.5,3.6-1.5,7.4-5.1,7.2C208.1,51.5,207.7,51,206.9,50.6z"
     id="path29"
     fill="#FFFFFF" /><g
     transform="matrix(0.37852979,0,0,-0.44444444,95.2695,73)"
     inkscape:label="ink_ext_XXXXXX"
     id="g4394"
     style="fill:#ffffff"><g
       transform="matrix(0.11741725,0,0,0.1,23.064235,38.25)"
       id="g4396"
       style="fill:#ffffff"><path
         inkscape:connector-curvature="0"
         id="path4402"
         style="fill:#ffffff;fill-opacity:1;fill-rule:nonzero;stroke:none"
         d="m 306.77,53.2422 -53.391,0 0,83.5428 c 0,19.926 -0.344,45.555 -27.742,45.555 -27.785,0 -32.024,-21.715 -32.024,-44.125 l 0,-84.9728 -53.332,0 0,171.7968 51.184,0 0,-23.484 0.73,0 c 7.121,13.504 24.543,27.746 50.52,27.746 54.062,0 64.055,-35.571 64.055,-81.84 l 0,-94.2188 z M 80.0781,248.512 c -17.1484,0 -30.9765,13.871 -30.9765,30.965 0,17.089 13.8281,30.964 30.9765,30.964 17.0821,0 30.9449,-13.875 30.9449,-30.964 0,-17.094 -13.8628,-30.965 -30.9449,-30.965 z m 26.7069,-195.2698 -53.4452,0 0,171.7968 53.4452,0 0,-171.7968 z M 333.359,360 26.5508,360 C 11.9063,360 0,348.379 0,334.043 L 0,25.9766 C 0,11.6406 11.9063,0 26.5508,0 L 333.359,0 c 14.676,0 26.629,11.6406 26.629,25.9766 l 0,308.0664 c 0,14.336 -11.953,25.957 -26.629,25.957" /></g><g
       id="g4409"
       transform="matrix(0.11741725,0,0,0.1,23.064235,38.25)"
       style="fill:#ffffff"><path
         d="m 306.77,53.2422 -53.391,0 0,83.5428 c 0,19.926 -0.344,45.555 -27.742,45.555 -27.785,0 -32.024,-21.715 -32.024,-44.125 l 0,-84.9728 -53.332,0 0,171.7968 51.184,0 0,-23.484 0.73,0 c 7.121,13.504 24.543,27.746 50.52,27.746 54.062,0 64.055,-35.571 64.055,-81.84 l 0,-94.2188 z M 80.0781,248.512 c -17.1484,0 -30.9765,13.871 -30.9765,30.965 0,17.089 13.8281,30.964 30.9765,30.964 17.0821,0 30.9449,-13.875 30.9449,-30.964 0,-17.094 -13.8628,-30.965 -30.9449,-30.965 z m 26.7069,-195.2698 -53.4452,0 0,171.7968 53.4452,0 0,-171.7968 z M 333.359,360 26.5508,360 C 11.9063,360 0,348.379 0,334.043 L 0,25.9766 C 0,11.6406 11.9063,0 26.5508,0 L 333.359,0 c 14.676,0 26.629,11.6406 26.629,25.9766 l 0,308.0664 c 0,14.336 -11.953,25.957 -26.629,25.957"
         style="fill:#ffffff;fill-opacity:1;fill-rule:nonzero;stroke:none"
         id="path4411"
         inkscape:connector-curvature="0" /></g></g><g
     id="g4413"
     inkscape:label="ink_ext_XXXXXX"
     transform="matrix(0.37852979,0,0,-0.44444444,95.2695,41)"
     style="fill:#333333"><g
       id="g4415"
       transform="matrix(0.11741725,0,0,0.1,23.064235,38.25)"
       style="fill:#333333"><path
         d="m 306.77,53.2422 -53.391,0 0,83.5428 c 0,19.926 -0.344,45.555 -27.742,45.555 -27.785,0 -32.024,-21.715 -32.024,-44.125 l 0,-84.9728 -53.332,0 0,171.7968 51.184,0 0,-23.484 0.73,0 c 7.121,13.504 24.543,27.746 50.52,27.746 54.062,0 64.055,-35.571 64.055,-81.84 l 0,-94.2188 z M 80.0781,248.512 c -17.1484,0 -30.9765,13.871 -30.9765,30.965 0,17.089 13.8281,30.964 30.9765,30.964 17.0821,0 30.9449,-13.875 30.9449,-30.964 0,-17.094 -13.8628,-30.965 -30.9449,-30.965 z m 26.7069,-195.2698 -53.4452,0 0,171.7968 53.4452,0 0,-171.7968 z M 333.359,360 26.5508,360 C 11.9063,360 0,348.379 0,334.043 L 0,25.9766 C 0,11.6406 11.9063,0 26.5508,0 L 333.359,0 c 14.676,0 26.629,11.6406 26.629,25.9766 l 0,308.0664 c 0,14.336 -11.953,25.957 -26.629,25.957"
         style="fill:#333333;fill-opacity:1;fill-rule:nonzero;stroke:none"
         id="path4417"
         inkscape:connector-curvature="0" /></g><g
       style="fill:#333333"
       transform="matrix(0.11741725,0,0,0.1,23.064235,38.25)"
       id="g4419"><path
         inkscape:connector-curvature="0"
         id="path4421"
         style="fill:#333333;fill-opacity:1;fill-rule:nonzero;stroke:none"
         d="m 306.77,53.2422 -53.391,0 0,83.5428 c 0,19.926 -0.344,45.555 -27.742,45.555 -27.785,0 -32.024,-21.715 -32.024,-44.125 l 0,-84.9728 -53.332,0 0,171.7968 51.184,0 0,-23.484 0.73,0 c 7.121,13.504 24.543,27.746 50.52,27.746 54.062,0 64.055,-35.571 64.055,-81.84 l 0,-94.2188 z M 80.0781,248.512 c -17.1484,0 -30.9765,13.871 -30.9765,30.965 0,17.089 13.8281,30.964 30.9765,30.964 17.0821,0 30.9449,-13.875 30.9449,-30.964 0,-17.094 -13.8628,-30.965 -30.9449,-30.965 z m 26.7069,-195.2698 -53.4452,0 0,171.7968 53.4452,0 0,-171.7968 z M 333.359,360 26.5508,360 C 11.9063,360 0,348.379 0,334.043 L 0,25.9766 C 0,11.6406 11.9063,0 26.5508,0 L 333.359,0 c 14.676,0 26.629,11.6406 26.629,25.9766 l 0,308.0664 c 0,14.336 -11.953,25.957 -26.629,25.957" /></g></g></svg>